<svg xmlns="http://www.w3.org/2000/svg" width="150" height="101" fill="none">
  <defs>
    <linearGradient id="a" x1="43.75" x2="43.75" y1="50.395" y2="93.843" gradientUnits="userSpaceOnUse">
      <stop stop-color="#A5D2DC" />
      <stop offset="1" stop-color="#A5D2DC" stop-opacity="0" />
    </linearGradient>
  </defs>
  <path fill="#A5D2DC" d="M144.144 54.927a26.244 26.244 0 0 0 0-33.052 26.247 26.247 0 0 0-40.829 0 26.248 26.248 0 0 0 0 33.052 26.247 26.247 0 0 0 40.829 0Zm-3.888-17.012a29.025 29.025 0 0 0-4.501-15.068h7.874a25.143 25.143 0 0 1 5.376 15.068h-8.749Zm-.973 0h-15.067V22.847h10.353a27.978 27.978 0 0 1 4.714 15.068Zm-15.067-16.04v-8.4a28.316 28.316 0 0 1 9.721 8.4h-9.721Zm-.972 0h-9.722a28.447 28.447 0 0 1 9.722-8.4v8.4Zm0 .972v15.068h-15.068a27.978 27.978 0 0 1 4.714-15.068h10.354Zm-16.04 15.068h-8.75a25.138 25.138 0 0 1 5.376-15.068h7.874a29.015 29.015 0 0 0-4.5 15.068Zm0 .972a29.015 29.015 0 0 0 4.5 15.068h-7.874a25.138 25.138 0 0 1-5.376-15.068h8.75Zm.972 0h15.068v15.068H112.89a27.978 27.978 0 0 1-4.714-15.068Zm15.068 16.04v8.399a28.535 28.535 0 0 1-9.722-8.4h9.722Zm.972 0h9.721a28.316 28.316 0 0 1-9.721 8.399v-8.4Zm0-.972V38.887h15.067a27.978 27.978 0 0 1-4.714 15.068h-10.353Zm16.04-15.068h8.749a25.143 25.143 0 0 1-5.376 15.068h-7.874a29.025 29.025 0 0 0 4.501-15.068Zm2.576-17.012h-7.719a29.378 29.378 0 0 0-9.342-8.662 25.276 25.276 0 0 1 17.061 8.662Zm-21.144-8.662a29.378 29.378 0 0 0-9.342 8.662h-7.719a25.278 25.278 0 0 1 17.061-8.662Zm-17.061 41.714h7.719a29.378 29.378 0 0 0 9.342 8.661 25.278 25.278 0 0 1-17.061-8.661Zm21.144 8.661a29.378 29.378 0 0 0 9.342-8.661h7.719a25.276 25.276 0 0 1-17.061 8.661Z" />
  <path fill="#B99855" d="m86.444 38.684-15.136 15.22a10.234 10.234 0 0 0-2.78 5.23 10.269 10.269 0 0 0 .578 5.903 10.203 10.203 0 0 0 3.742 4.584 10.117 10.117 0 0 0 5.643 1.722 10.042 10.042 0 0 0 3.899-.77 10.089 10.089 0 0 0 3.3-2.222l15.12-15.221a10.261 10.261 0 0 0 1.902-11.797l-3.33 3.348a5.971 5.971 0 0 1-.11 2.924 5.955 5.955 0 0 1-1.488 2.516L82.282 65.697a5.99 5.99 0 0 1-3.965 1.499 5.8 5.8 0 0 1-4.145-1.742 5.862 5.862 0 0 1-1.682-4.188 6.054 6.054 0 0 1 1.494-3.93l.217-.218.083-.088.03-.025.049-.054 15.132-15.217a5.845 5.845 0 0 1 5.368-1.61l3.33-3.349a10.088 10.088 0 0 0-4.533-1.071 10.039 10.039 0 0 0-3.887.773 10.085 10.085 0 0 0-3.291 2.22l-.038-.013Zm29.377-16.292a10.205 10.205 0 0 0-.769-3.912 10.145 10.145 0 0 0-2.207-3.312 10.066 10.066 0 0 0-3.291-2.22 10.027 10.027 0 0 0-3.888-.772 10.043 10.043 0 0 0-3.889.773 10.088 10.088 0 0 0-3.293 2.22l-15.14 15.224a10.224 10.224 0 0 0-2.848 5.585 10.254 10.254 0 0 0 .942 6.204l3.18-3.201a6.117 6.117 0 0 1 1.38-5.169l.209-.213.083-.088.025-.025.054-.05 15.136-15.238a5.855 5.855 0 0 1 6.414-1.284 5.865 5.865 0 0 1 1.909 1.284 5.95 5.95 0 0 1 1.717 4.185 5.95 5.95 0 0 1-1.717 4.185l-15.51 15.614a5.965 5.965 0 0 1-5.136 1.381l-3.179 3.202a10.121 10.121 0 0 0 4.536 1.071 10.032 10.032 0 0 0 3.89-.771 10.078 10.078 0 0 0 3.293-2.221l15.136-15.216a10.186 10.186 0 0 0 2.975-7.223" />
  <path fill="url(#a)" d="M41.596 6.785a5.469 5.469 0 0 1 4.307 0l38.28 16.406a5.451 5.451 0 0 1 3.195 6.12c-.512 2.546-2.75 4.221-5.502 4.375v1.367c0 2.273-1.675 4.102-4.102 4.102H9.417c-2.113 0-4.102-1.829-4.102-4.102v-1.367C2.873 33.532.635 31.857.112 29.31a5.47 5.47 0 0 1 3.202-6.12L41.596 6.785Zm2.153 21.432a5.469 5.469 0 1 0 0-10.937 5.469 5.469 0 0 0 0 10.937Zm-22.028 49.22h6.836V44.623h10.937v32.812h8.357V44.623h10.937v32.813h6.836V44.623H76.56v33.548c.102.051.205-.034.307.188l8.203 5.469a5.469 5.469 0 0 1-3.041 10.015H5.314c-2.256 0-4.381-1.573-5.08-3.88a5.469 5.469 0 0 1 2.2-6.135l8.204-5.469c.097-.222.198-.136.145-.188V44.623H21.72v32.813Z" opacity=".2" />
  <circle cx="43.75" cy="22.593" r="5.417" fill="#A5D2DC" />
</svg>