<svg xmlns="http://www.w3.org/2000/svg" width="121" height="96" fill="none"><defs><linearGradient id="a" x1="50.196" x2="50.196" y1="23.411" y2="95.568" gradientUnits="userSpaceOnUse"><stop offset=".55" stop-color="#fff"/><stop offset="1" stop-color="#fff" stop-opacity="0"/></linearGradient></defs><path stroke="#fff" d="M69.804 29.686h39.216M69.804 57.137h36.078M69.804 16.352h39.216M69.804 43.804h39.216M58.824 1.45v74.118H120V1.451H58.824Z" opacity=".2"/><path fill="url(#a)" d="M41.725 95.568V70.101h16.941v25.467h21.177V61.612h12.706l-42.353-38.2-42.353 38.2h12.706v33.956h21.176Z" opacity=".2"/><path fill="#B99855" d="M21.2 33.612h-3.184c-.422 0-.827-.165-1.125-.458a1.55 1.55 0 0 1-.466-1.106c0-.415.168-.813.466-1.107a1.606 1.606 0 0 1 1.125-.458h7.958v-3.128H21.2v-3.129h-3.183v3.129c-1.266 0-2.48.494-3.376 1.374a4.652 4.652 0 0 0-1.398 3.319c0 1.244.503 2.438 1.398 3.318a4.817 4.817 0 0 0 3.376 1.374H21.2c.422 0 .827.165 1.126.459.298.293.466.69.466 1.106 0 .414-.168.812-.466 1.106a1.606 1.606 0 0 1-1.126.458h-7.957v3.129h4.774v3.128H21.2v-3.128a4.82 4.82 0 0 0 3.377-1.375 4.653 4.653 0 0 0 1.398-3.318 4.652 4.652 0 0 0-1.398-3.319 4.817 4.817 0 0 0-3.377-1.374Z"/><path fill="#B99855" d="M39.216 35.176a19.608 19.608 0 1 0-39.216 0 19.608 19.608 0 0 0 39.216 0ZM19.608 51.767a16.591 16.591 0 1 1 0-33.182 16.591 16.591 0 0 1 0 33.182Z"/><path stroke="#A5D2DC" stroke-linecap="square" stroke-width="2" d="m91.465 59.522-41.66-36.895M9.482 58.862l40.086-36.305"/><path stroke="#fff" d="M12.549 95.068h75.294"/></svg>