<svg xmlns="http://www.w3.org/2000/svg" aria-label="logo" class="css-en-1hu3gji" viewBox="0 0 495 200"><path fill="#fff" d="M473.746 19.373h-12.514v-7.08h12.514V0h7.43v12.293h12.514v7.08h-12.514v12.294h-7.43V19.373Z"/><path fill="#fff" fill-rule="evenodd" d="M41.304 12.391c-8.83 0-15.987 7.158-15.987 15.988V34.66h8.793v-5.482a7.194 7.194 0 0 1 14.39 0v29.055h8.792V28.379c0-8.83-7.158-15.988-15.988-15.988Zm12.79 42.758v-26.77c0-7.064-5.726-12.79-12.79-12.79-7.063 0-12.79 5.726-12.79 12.79v3.197h2.399v-2.398c0-5.74 4.652-10.392 10.392-10.392 5.739 0 10.392 4.653 10.392 10.392v25.97h2.397ZM41.304 95c8.83 0 15.988-7.158 15.988-15.987v-5.596H48.5v4.796a7.194 7.194 0 0 1-14.389 0V49.158h-8.793v29.854c0 8.83 7.158 15.988 15.988 15.988Zm-12.79-42.758v26.77c0 7.064 5.727 12.79 12.79 12.79 7.064 0 12.79-5.726 12.79-12.79v-3.197h-2.398v2.398c0 5.74-4.652 10.392-10.392 10.392-5.739 0-10.392-4.652-10.392-10.392v-25.97h-2.397ZM0 53.697c0 8.83 7.158 15.987 15.987 15.987h6.282V60.89h-5.482a7.194 7.194 0 1 1 0-14.389h28.368v-8.793H15.988C7.158 37.709 0 44.867 0 53.697Zm42.757-12.79h-26.77c-7.063 0-12.79 5.726-12.79 12.79 0 7.064 5.727 12.79 12.79 12.79h3.198v-2.398h-2.398c-5.74 0-10.392-4.653-10.392-10.392 0-5.74 4.652-10.392 10.392-10.392h25.97v-2.398Zm39.852 12.79c0-8.83-7.158-15.988-15.988-15.988H60.34v8.793h5.482a7.194 7.194 0 1 1 0 14.39H36.767v8.792h29.854c8.83 0 15.988-7.158 15.988-15.987ZM39.85 66.486h26.77c7.064 0 12.79-5.727 12.79-12.79 0-7.064-5.726-12.79-12.79-12.79h-3.197v2.398h2.398c5.74 0 10.392 4.653 10.392 10.392 0 5.74-4.653 10.392-10.392 10.392h-25.97v2.398Z" clip-rule="evenodd"/><path fill="#fff" d="m128.252 58.39-7.624-17.644-7.562 17.644h15.186Zm-11.09-26.907h7.183l19.409 44.425h-8.192l-4.474-10.65H110.23l-4.537 10.65h-7.94l19.409-44.425ZM150.688 31.799h7.75V68.85h23.189v7.058h-30.939v-44.11ZM189.072 31.799h7.751V68.85h23.189v7.058h-30.94v-44.11ZM240.664 31.641h7.75v44.11h-7.75V31.64ZM259.592 31.641h7.184l23.63 30.499V31.64h7.624v44.11h-6.49L267.217 44.37v31.38h-7.625V31.642ZM341.809 69.386c2.184 0 4.18-.399 5.986-1.197 1.848-.84 3.424-1.953 4.726-3.34 1.302-1.428 2.31-3.088 3.025-4.978.756-1.89 1.134-3.907 1.134-6.05v-.125c0-2.143-.378-4.16-1.134-6.05-.715-1.932-1.744-3.591-3.088-4.978-1.302-1.428-2.878-2.562-4.726-3.402-1.849-.84-3.865-1.26-6.049-1.26-2.185 0-4.201.42-6.05 1.26a13.77 13.77 0 0 0-4.663 3.34c-1.302 1.386-2.331 3.024-3.087 4.914-.715 1.89-1.072 3.907-1.072 6.05v.126c0 2.142.357 4.18 1.072 6.112.756 1.89 1.785 3.55 3.087 4.978 1.345 1.386 2.941 2.5 4.789 3.34 1.849.84 3.865 1.26 6.05 1.26Zm-.126 7.12c-3.403 0-6.512-.587-9.326-1.764-2.815-1.218-5.231-2.856-7.247-4.915-2.016-2.058-3.592-4.453-4.726-7.183-1.134-2.773-1.701-5.714-1.701-8.822v-.126c0-3.109.567-6.029 1.701-8.76 1.134-2.772 2.731-5.187 4.789-7.246 2.058-2.1 4.495-3.76 7.31-4.978 2.814-1.218 5.923-1.827 9.326-1.827 3.402 0 6.511.609 9.326 1.827 2.814 1.176 5.23 2.794 7.246 4.852 2.017 2.059 3.592 4.474 4.726 7.247 1.134 2.73 1.702 5.65 1.702 8.759v.126c0 3.108-.568 6.05-1.702 8.822a22.68 22.68 0 0 1-4.789 7.246c-2.058 2.059-4.495 3.697-7.309 4.915-2.815 1.219-5.924 1.828-9.326 1.828ZM373.543 31.64h7.183l23.631 30.5v-30.5h7.624v44.11h-6.49l-24.323-31.38v31.38h-7.625V31.64ZM422.696 31.64H455.4v6.932h-24.953v11.469h22.118v6.931h-22.118V68.82h25.268v6.931h-33.019V31.64Z"/></svg>