<svg width="42" height="32" viewBox="0 0 42 32" fill="none" xmlns="http://www.w3.org/2000/svg">
<path d="M0 2C0 0.895431 0.895431 0 2 0H40C41.1046 0 42 0.895431 42 2V30C42 31.1046 41.1046 32 40 32H2C0.89543 32 0 31.1046 0 30V2Z" fill="#111111"/>
<g clip-path="url(#clip0_4333_199310)">
<path d="M9.61084 14.2318V16.2121C9.5757 16.5578 9.61341 16.9077 9.72117 17.2355C9.82893 17.5634 10.004 17.8608 10.2332 18.1056C10.8757 18.5462 11.6342 18.7485 12.3932 18.6816C13.0537 18.7337 13.7159 18.6062 14.3188 18.3108C14.5704 18.1453 14.779 17.9137 14.925 17.6378C15.071 17.3618 15.1496 17.0504 15.1535 16.7328H14.3261L13.6379 15.7939V15.2574H17.2988V16.7092H16.7863C16.7785 17.2344 16.6549 17.7501 16.4258 18.2138C16.1966 18.6775 15.8685 19.0758 15.4683 19.3759C14.7533 19.8844 13.9082 20.1383 13.0521 20.1018H11.7415C10.7828 20.1551 9.83937 19.8265 9.09099 19.1786C8.72071 18.8309 8.4297 18.3959 8.24052 17.9075C8.05133 17.419 7.96904 16.8902 8.00003 16.362V14.934L8.82008 14.2318H9.61084ZM11.3461 20.9223C11.4589 20.9213 11.5707 20.9445 11.675 20.9906C11.7794 21.0366 11.8741 21.1046 11.9538 21.1905C12.0346 21.2756 12.0984 21.3776 12.1412 21.4902C12.184 21.6028 12.205 21.7237 12.2028 21.8454C12.2038 21.9669 12.1823 22.0874 12.1396 22.1999C12.0969 22.3124 12.0338 22.4145 11.9541 22.5005C11.8743 22.5864 11.7795 22.6544 11.6751 22.7004C11.5707 22.7464 11.4589 22.7695 11.3461 22.7685C11.2332 22.7708 11.121 22.7483 11.0165 22.7021C10.912 22.656 10.8173 22.5873 10.7384 22.5002C10.6578 22.4134 10.5942 22.31 10.5514 22.1962C10.5086 22.0823 10.4876 21.9603 10.4895 21.8375C10.4885 21.716 10.51 21.5955 10.5527 21.483C10.5954 21.3705 10.6585 21.2684 10.7382 21.1824C10.8179 21.0965 10.9128 21.0285 11.0171 20.9825C11.1215 20.9365 11.2334 20.9133 11.3461 20.9144V20.9223ZM13.3523 20.9223C13.4645 20.9212 13.5757 20.9442 13.6796 20.9897C13.7835 21.0352 13.878 21.1025 13.9576 21.1875C14.0373 21.2726 14.1005 21.3739 14.1436 21.4854C14.1868 21.597 14.209 21.7166 14.209 21.8375C14.2099 21.959 14.1884 22.0795 14.1456 22.1919C14.1029 22.3043 14.0398 22.4065 13.96 22.4924C13.8811 22.5794 13.7865 22.6481 13.6819 22.6942C13.5774 22.7404 13.4652 22.763 13.3523 22.7606C13.2417 22.7622 13.1319 22.7392 13.0299 22.693C12.9278 22.6469 12.8357 22.5786 12.7592 22.4924C12.6781 22.4076 12.6141 22.3056 12.5713 22.193C12.5284 22.0803 12.5077 21.9592 12.5103 21.8375C12.5081 21.7158 12.5291 21.5949 12.5719 21.4823C12.6147 21.3697 12.6785 21.2677 12.7592 21.1827C12.8373 21.0993 12.9299 21.0334 13.0317 20.9887C13.1335 20.9441 13.2424 20.9215 13.3523 20.9223Z" fill="#B99855"/>
<path d="M20.0957 10.1748V15.1454C20.098 15.5168 19.9788 15.8772 19.7589 16.1632C19.6278 16.3359 19.4624 16.4745 19.2747 16.5687C19.0871 16.663 18.8822 16.7104 18.6752 16.7075H16.1345V15.2558H18.1627C18.2558 15.2552 18.3451 15.2156 18.4116 15.1454C18.4709 15.0797 18.5049 14.9923 18.5068 14.9008V10.1669L20.0957 10.1748ZM18.9827 17.7411C19.2099 17.7411 19.4278 17.8384 19.5885 18.0115C19.7491 18.1846 19.8394 18.4194 19.8394 18.6642C19.8394 18.909 19.7491 19.1438 19.5885 19.3169C19.4278 19.4901 19.2099 19.5873 18.9827 19.5873C18.8708 19.5905 18.7595 19.5683 18.656 19.522C18.5526 19.4758 18.4594 19.4067 18.3823 19.3191C18.2274 19.1419 18.141 18.9077 18.141 18.6642C18.141 18.4208 18.2274 18.1865 18.3823 18.0094C18.4594 17.9218 18.5526 17.8526 18.656 17.8064C18.7595 17.7602 18.8708 17.7379 18.9827 17.7411ZM25.609 10.1748V15.2558H26.3046V16.7075H25.5724C25.561 17.2166 25.4423 17.7162 25.2254 18.1686C25.0085 18.621 24.699 19.0144 24.3204 19.3191C23.6374 19.8342 22.818 20.0972 21.9847 20.0686H21.4722L20.8278 19.2086V18.5932C21.0991 18.6397 21.3733 18.6635 21.6479 18.6642C23.2001 18.6642 23.9763 17.8516 23.9763 16.2263V10.1748H25.609Z" fill="#B99855"/>
<path d="M28.838 15.2548C28.6557 15.0199 28.5121 14.753 28.4134 14.4658C28.2808 14.0658 28.2139 13.644 28.2157 13.2192C28.1886 12.7386 28.2719 12.2581 28.4584 11.8204C28.6449 11.3828 28.9287 11.0015 29.2847 10.7103C29.9228 10.2162 30.696 9.96621 31.4812 10.0002C31.978 10.0023 32.4716 10.0848 32.9456 10.2448V11.5782C32.5207 11.4688 32.0863 11.408 31.6496 11.3967C31.4044 11.3597 31.1546 11.3847 30.9199 11.4697C30.6852 11.5546 30.472 11.6973 30.2973 11.8863C30.1226 12.0754 29.9911 12.3056 29.9132 12.5589C29.8353 12.8121 29.8131 13.0814 29.8484 13.3455C29.8404 13.7349 29.937 14.1185 30.1267 14.45C30.2611 14.7016 30.4572 14.9084 30.6936 15.0476C30.93 15.1868 31.1975 15.253 31.4666 15.239H34.0219V15.8071L33.3629 16.6907H26.1875V15.2548H28.838Z" fill="#B99855"/>
</g>
<defs>
<clipPath id="clip0_4333_199310">
<rect width="26" height="12.7657" fill="white" transform="translate(8 10)"/>
</clipPath>
</defs>
</svg>
