<svg width="66" height="77" viewBox="0 0 66 77" fill="none" xmlns="http://www.w3.org/2000/svg">
<path d="M13.5882 33.6494H0V76.3551H13.5882V33.6494Z" fill="url(#paint0_linear_2702_96516)"/>
<path d="M48.5291 23.9419H34.9409V76.3534H48.5291V23.9419Z" fill="url(#paint1_linear_2702_96516)"/>
<path d="M66 8.41357H52.4119V76.3544H66V8.41357Z" fill="url(#paint2_linear_2702_96516)"/>
<path opacity="0.2" d="M31.0591 16.1777H17.4709V76.3539H31.0591V16.1777Z" fill="#C0A266"/>
<path fill-rule="evenodd" clip-rule="evenodd" d="M25.3845 2.5C25.3845 1.39543 26.28 0.5 27.3845 0.5H53.8459C54.9505 0.5 55.8459 1.39543 55.8459 2.5V16.2691C55.8459 17.3737 54.9505 18.2691 53.8459 18.2691H43.1536L40.6152 20.8076L38.0767 18.2691H27.3845C26.28 18.2691 25.3845 17.3737 25.3845 16.2691V2.5ZM31.4614 8.11535C30.9091 8.11535 30.4614 8.56306 30.4614 9.11535V9.65379C30.4614 10.2061 30.9091 10.6538 31.4614 10.6538H39.6152C40.1675 10.6538 40.6152 10.2061 40.6152 9.65379V9.11535C40.6152 8.56306 40.1675 8.11535 39.6152 8.11535H31.4614Z" fill="#B99855"/>
<defs>
<linearGradient id="paint0_linear_2702_96516" x1="-23.2131" y1="26.879" x2="19.28" y2="81.4227" gradientUnits="userSpaceOnUse">
<stop offset="0.0657495" stop-color="#6F5B33"/>
<stop offset="1" stop-color="#C0A266" stop-opacity="0.2"/>
</linearGradient>
<linearGradient id="paint1_linear_2702_96516" x1="11.7278" y1="15.6328" x2="65.4581" y2="71.8286" gradientUnits="userSpaceOnUse">
<stop offset="0.0657495" stop-color="#6F5B33"/>
<stop offset="1" stop-color="#C0A266" stop-opacity="0.2"/>
</linearGradient>
<linearGradient id="paint2_linear_2702_96516" x1="29.1988" y1="-2.35753" x2="97.3434" y2="52.6234" gradientUnits="userSpaceOnUse">
<stop offset="0.0657495" stop-color="#6F5B33"/>
<stop offset="1" stop-color="#C0A266" stop-opacity="0.2"/>
</linearGradient>
</defs>
</svg>
