<svg viewBox="0 0 24 24" focusable="false" class="chakra-icon css-en-blpcuq" aria-hidden="true"><path fill-rule="evenodd" clip-rule="evenodd" d="M7.62216 21L19.9375 21V6.83333L18.4886 5.41667V19.5833L6.89773 19.5833C6.1733 19.5833 5.44886 19.2292 5.44886 18.1667L17.0398 18.1667V4L6.1733 4C5.07851 4 4.53521 4 4.2656 4.27164C4 4.53924 4 5.07046 4 6.125L4 18.1667C4 20.2917 5.81108 21 7.62216 21ZM5.44901 13.8743H6.9848L7.33253 12.8685L9.46236 12.8685L9.82457 13.8743L15.5911 13.8743V12.6701H12.7078L15.3592 9.22763V8.29263H11.2879V9.4968H13.722L11.0126 12.9393V13.0668L9.0277 8.29263L7.70923 8.29263L5.44901 13.8743ZM7.70889 11.7493L8.36088 9.86513L9.05634 11.7493L7.70889 11.7493Z" fill="#B99855"></path></svg>