<svg width="21" height="21" viewBox="0 0 21 21" fill="none" xmlns="http://www.w3.org/2000/svg">
<path d="M20.2442 7.50452L11.114 0.200296C10.952 0.0706427 10.7508 0 10.5433 0C10.3359 0 10.1346 0.0706427 9.97267 0.200296L0.842386 7.50452C0.735499 7.5901 0.649229 7.69862 0.589962 7.82206C0.530695 7.94549 0.499949 8.08067 0.5 8.2176V20.087C0.5 20.3291 0.596194 20.5614 0.76742 20.7326C0.938646 20.9038 1.17088 21 1.41303 21H7.80423V13.6958H13.2824V21H19.6736C19.9157 21 20.148 20.9038 20.3192 20.7326C20.4904 20.5614 20.5866 20.3291 20.5866 20.087V8.2176C20.5867 8.08067 20.5559 7.94549 20.4967 7.82206C20.4374 7.69862 20.3511 7.5901 20.2442 7.50452Z" fill="#B99855"/>
</svg>
