<svg width="26" height="26" viewBox="0 0 26 26" fill="none" xmlns="http://www.w3.org/2000/svg">
<path d="M7.13213 8.48644C8.8772 8.48644 10.2919 7.07178 10.2919 5.32671C10.2919 3.58165 8.8772 2.16699 7.13213 2.16699C5.38707 2.16699 3.97241 3.58165 3.97241 5.32671C3.97241 7.07178 5.38707 8.48644 7.13213 8.48644Z" fill="#B99855"/>
<path d="M18.8682 8.48644C20.6133 8.48644 22.0279 7.07178 22.0279 5.32671C22.0279 3.58165 20.6133 2.16699 18.8682 2.16699C17.1232 2.16699 15.7085 3.58165 15.7085 5.32671C15.7085 7.07178 17.1232 8.48644 18.8682 8.48644Z" fill="#B99855"/>
<path d="M22.826 10.7434C21.6932 9.86645 20.3012 9.39062 18.8687 9.39062C17.4361 9.39062 16.0441 9.86645 14.9114 10.7434C14.7062 10.912 14.5278 11.1107 14.3823 11.3329C15.7183 11.5964 16.9527 12.2316 17.9438 13.1653C18.9349 14.0991 19.6424 15.2935 19.985 16.6114H23.8335V12.8523C23.8363 12.4474 23.7471 12.0472 23.5725 11.6818C23.398 11.3165 23.1427 10.9956 22.826 10.7434Z" fill="#B99855"/>
<path d="M11.618 11.3318C11.473 11.1101 11.2949 10.9119 11.0899 10.7441C9.96409 9.85376 8.56732 9.37585 7.13208 9.38995C5.69717 9.37613 4.30077 9.85402 3.17521 10.7441C2.85836 10.9963 2.60296 11.3172 2.42827 11.6825C2.25358 12.0478 2.16417 12.4481 2.1668 12.853V16.6122H6.01535C6.35763 15.294 7.06499 14.0991 8.0561 13.165C9.04721 12.2309 10.2818 11.5955 11.618 11.3318Z" fill="#B99855"/>
<path d="M13.0002 13C11.9288 13 10.8816 13.3177 9.99083 13.9129C9.10006 14.5081 8.40579 15.354 7.99582 16.3438C7.58584 17.3336 7.47857 18.4227 7.68758 19.4734C7.89658 20.5241 8.41247 21.4893 9.17 22.2468C9.92754 23.0044 10.8927 23.5203 11.9434 23.7293C12.9942 23.9383 14.0833 23.831 15.073 23.421C16.0628 23.011 16.9088 22.3168 17.504 21.426C18.0991 20.5352 18.4168 19.488 18.4168 18.4167C18.4154 16.9805 17.8443 15.6036 16.8287 14.5881C15.8132 13.5726 14.4363 13.0014 13.0002 13ZM13.9029 21.125H12.0974V15.7083H13.9029V21.125Z" fill="#B99855"/>
</svg>
