<svg width="22" height="22" viewBox="0 0 22 22" fill="none" xmlns="http://www.w3.org/2000/svg">
<path d="M8.51095 9.4392C7.53734 8.67183 6.33054 8.26059 5.09095 8.27374C3.85136 8.26059 2.64456 8.67183 1.67095 9.4392C1.45986 9.60887 1.28987 9.82408 1.17369 10.0687C1.05751 10.3134 0.998145 10.5811 1.00004 10.8519V13.7283H3.72732" stroke="#828282" stroke-width="1.5" stroke-miterlimit="10" stroke-linecap="square"/>
<path d="M5.09096 5.54545C6.34616 5.54545 7.36369 4.52792 7.36369 3.27273C7.36369 2.01753 6.34616 1 5.09096 1C3.83577 1 2.81824 2.01753 2.81824 3.27273C2.81824 4.52792 3.83577 5.54545 5.09096 5.54545Z" stroke="#828282" stroke-width="1.5" stroke-miterlimit="10" stroke-linecap="square"/>
<path d="M18.2734 13.7279H21.0007V10.8516C21.0026 10.5807 20.9432 10.313 20.827 10.0684C20.7108 9.82371 20.5408 9.6085 20.3297 9.43883C19.3498 8.68323 18.1472 8.27344 16.9097 8.27344C15.6723 8.27344 14.4697 8.68323 13.4897 9.43883" stroke="#828282" stroke-width="1.5" stroke-miterlimit="10" stroke-linecap="square"/>
<path d="M16.9092 5.54545C18.1644 5.54545 19.1819 4.52792 19.1819 3.27273C19.1819 2.01753 18.1644 1 16.9092 1C15.654 1 14.6365 2.01753 14.6365 3.27273C14.6365 4.52792 15.654 5.54545 16.9092 5.54545Z" stroke="#828282" stroke-width="1.5" stroke-miterlimit="10" stroke-linecap="square"/>
<path d="M11.0003 20.9991C13.5107 20.9991 15.5457 18.964 15.5457 16.4537C15.5457 13.9433 13.5107 11.9082 11.0003 11.9082C8.4899 11.9082 6.45483 13.9433 6.45483 16.4537C6.45483 18.964 8.4899 20.9991 11.0003 20.9991Z" stroke="#828282" stroke-width="1.5" stroke-miterlimit="10" stroke-linecap="square"/>
<path d="M11 15.5449V17.3631" stroke="#828282" stroke-width="1.5" stroke-miterlimit="10" stroke-linecap="square"/>
</svg>
