<svg width="24" height="24" viewBox="0 0 24 24" fill="none" xmlns="http://www.w3.org/2000/svg">
<path d="M20 5.17647V18.8235C20 19.1355 19.8761 19.4348 19.6554 19.6554C19.4348 19.8761 19.1355 20 18.8235 20H5.17647C4.86445 20 4.56521 19.8761 4.34458 19.6554C4.12395 19.4348 4 19.1355 4 18.8235V5.17647C4 4.86445 4.12395 4.56521 4.34458 4.34458C4.56521 4.12395 4.86445 4 5.17647 4H18.8235C19.1355 4 19.4348 4.12395 19.6554 4.34458C19.8761 4.56521 20 4.86445 20 5.17647V5.17647ZM8.70588 10.1176H6.35294V17.6471H8.70588V10.1176ZM8.91765 7.52941C8.91889 7.35143 8.88506 7.17495 8.81809 7.01004C8.75113 6.84513 8.65233 6.69503 8.52736 6.56831C8.40238 6.44158 8.25366 6.34071 8.0897 6.27146C7.92574 6.20221 7.74975 6.16594 7.57176 6.16471H7.52941C7.16747 6.16471 6.82035 6.30849 6.56442 6.56442C6.30849 6.82035 6.16471 7.16747 6.16471 7.52941C6.16471 7.89135 6.30849 8.23847 6.56442 8.4944C6.82035 8.75034 7.16747 8.89412 7.52941 8.89412V8.89412C7.70741 8.8985 7.88452 8.86776 8.05063 8.80367C8.21674 8.73957 8.36859 8.64338 8.49751 8.52057C8.62643 8.39777 8.72989 8.25077 8.80198 8.08797C8.87407 7.92517 8.91337 7.74976 8.91765 7.57176V7.52941ZM17.6471 13.0729C17.6471 10.8094 16.2071 9.92941 14.7765 9.92941C14.3081 9.90596 13.8417 10.0057 13.4239 10.2188C13.0061 10.4318 12.6514 10.7507 12.3953 11.1435H12.3294V10.1176H10.1176V17.6471H12.4706V13.6424C12.4366 13.2322 12.5658 12.8252 12.8301 12.5098C13.0944 12.1943 13.4726 11.9959 13.8824 11.9576H13.9718C14.72 11.9576 15.2753 12.4282 15.2753 13.6141V17.6471H17.6282L17.6471 13.0729Z" fill="#0A66C2"/>
</svg>
