<svg width="20" height="20" viewBox="0 0 20 20" fill="none" xmlns="http://www.w3.org/2000/svg">
<path d="M11.2502 7.49961C11.2502 7.16808 11.1185 6.85013 10.8841 6.6157C10.6496 6.38127 10.3317 6.24957 10.0002 6.24957C9.66863 6.24957 9.35068 6.38127 9.11625 6.6157C8.88182 6.85013 8.75012 7.16808 8.75012 7.49961V8.99966H11.2502V7.49961Z" fill="#B99855"/>
<path d="M16.1654 3.01353L10.1652 2.0135C10.056 1.9955 9.94448 1.9955 9.83521 2.0135L3.83503 3.01353C3.6017 3.05257 3.38977 3.17305 3.23689 3.35358C3.084 3.53411 3.00007 3.763 3 3.99956V10.9998C3 12.8564 3.73752 14.6369 5.05032 15.9497C6.36311 17.2625 8.14364 18 10.0002 18C11.8568 18 13.6373 17.2625 14.9501 15.9497C16.2629 14.6369 17.0004 12.8564 17.0004 10.9998V3.99956C17.0004 3.763 16.9164 3.53411 16.7635 3.35358C16.6107 3.17305 16.3987 3.05257 16.1654 3.01353V3.01353ZM14.0003 12.9998C14.0003 13.2651 13.895 13.5194 13.7074 13.707C13.5199 13.8945 13.2655 13.9999 13.0003 13.9999H7.00012C6.7349 13.9999 6.48054 13.8945 6.293 13.707C6.10545 13.5194 6.00009 13.2651 6.00009 12.9998V9.99975C6.00009 9.73453 6.10545 9.48016 6.293 9.29262C6.48054 9.10508 6.7349 8.99972 7.00012 8.99972H7.25013V7.49967C7.25013 6.7703 7.53987 6.07081 8.05561 5.55507C8.57135 5.03933 9.27085 4.74959 10.0002 4.74959C10.7296 4.74959 11.4291 5.03933 11.9448 5.55507C12.4606 6.07081 12.7503 6.7703 12.7503 7.49967V8.99972H13.0003C13.2655 8.99972 13.5199 9.10508 13.7074 9.29262C13.895 9.48016 14.0003 9.73453 14.0003 9.99975V12.9998Z" fill="#B99855"/>
</svg>
