<svg width="97" height="96" viewBox="0 0 97 96" fill="none" xmlns="http://www.w3.org/2000/svg">
<circle cx="48.5" cy="48" r="48" fill="#222222"/>
<path fill-rule="evenodd" clip-rule="evenodd" d="M61.291 70.5662H36.711C34.115 70.5662 32.0107 68.462 32.0107 65.8654V50.6868C32.0107 48.4223 33.6129 46.5317 35.7452 46.087V39.2343C35.7452 31.9251 41.6922 25.9775 49.0019 25.9775C56.311 25.9775 62.258 31.9245 62.258 39.2343V46.087C64.3897 46.5328 65.9913 48.423 65.9913 50.6868V65.8654C65.9908 68.4614 63.887 70.5662 61.291 70.5662ZM48.999 32.8916C45.5029 32.8916 42.6592 35.7359 42.6592 39.2315V45.9832H55.3389V39.2315C55.3383 35.7365 52.4946 32.8916 48.999 32.8916ZM44.8398 57.2328C44.8398 54.9354 46.7026 53.0732 48.9994 53.0732H48.9996C51.2964 53.0732 53.1591 54.9348 53.1597 57.2328C53.1597 58.7735 52.3198 60.1151 51.0748 60.8344V65.4588H46.9247V60.8344C45.6797 60.1145 44.8398 58.7729 44.8398 57.2328Z" fill="#B99855"/>
</svg>
