<svg xmlns="http://www.w3.org/2000/svg" width="22" height="22" fill="none"><path fill="#fff" fill-rule="evenodd" d="M10.681.204a4.134 4.134 0 0 0-4.134 4.134v1.624h2.274V4.545a1.86 1.86 0 0 1 3.72 0v7.513h2.274v-7.72A4.134 4.134 0 0 0 10.681.204Zm3.307 11.057V4.338a3.307 3.307 0 1 0-6.614 0v.827h.62v-.62a2.687 2.687 0 1 1 5.374 0v6.716h.62Zm-3.307 10.305a4.134 4.134 0 0 0 4.134-4.134v-1.447h-2.274v1.24a1.86 1.86 0 1 1-3.72 0V9.712H6.547v7.72a4.134 4.134 0 0 0 4.134 4.134ZM7.374 10.51v6.922a3.307 3.307 0 0 0 6.615 0v-.827h-.62v.62a2.687 2.687 0 1 1-5.375 0V10.51h-.62Zm13.988.374a4.134 4.134 0 0 0-4.134-4.134h-1.625v2.274h1.418a1.86 1.86 0 1 1 0 3.72H9.508v2.274H17.227a4.134 4.134 0 0 0 4.135-4.134Zm-11.057 3.307h6.922a3.307 3.307 0 1 0 0-6.614h-.826v.62h.62a2.687 2.687 0 1 1 0 5.375h-6.716v.62ZM0 10.884a4.134 4.134 0 0 0 4.134 4.134h1.624v-2.274H4.341a1.86 1.86 0 1 1 0-3.72h7.336V6.75H4.134A4.134 4.134 0 0 0 0 10.884Zm11.056-3.307H4.135a3.307 3.307 0 1 0 0 6.614h.827v-.62h-.62a2.687 2.687 0 0 1 0-5.374h6.715v-.62Z" clip-rule="evenodd"/></svg>