<svg width="100" height="44" viewBox="0 0 100 44" fill="none" xmlns="http://www.w3.org/2000/svg">
<g clip-path="url(#clip0_4660_186171)">
<path fill-rule="evenodd" clip-rule="evenodd" d="M13.2694 39.0021V39.4378C8.83675 40.2307 3.46316 42.4552 1.83689 44H0.142682C2.20063 41.2221 7.80656 38.7472 13.2694 39.0021ZM13.2694 41.4296V42.1044C12.7269 42.2497 12.1532 42.4156 11.5889 42.5904L11.3077 42.6786C9.86064 43.1373 8.52059 43.6438 7.98459 44H4.54153C6.95726 42.6395 10.1276 41.4988 13.2694 41.4296ZM13.4058 36.8055C7.08401 37.8269 2.61541 39.477 0 41.7558V40.2249C1.36697 38.8579 7.13937 35.6417 13.4058 36.8055ZM12.458 34.3676C6.94732 35.0027 2.79467 36.2151 0 38.0049V36.5261C4.15265 34.1764 8.3053 33.4569 12.458 34.3676ZM11.6446 31.9819C7.07559 32.2753 3.19406 33.1596 0 34.6347V33.1369C4.77568 31.3312 8.65721 30.9462 11.6446 31.9819ZM0.197929 0L13.2694 27.1317V32.4152L0 0.713992V0H0.197929ZM10.535 29.5214C6.19172 29.7687 2.68004 30.3998 0 31.4147V29.9606C4.30866 28.6381 7.82034 28.4917 10.535 29.5214ZM9.62526 27.1931C5.67808 27.1931 2.46966 27.6397 0 28.5329V27.0381C3.87665 26.1621 7.08507 26.2138 9.62526 27.1931ZM8.65014 24.7966C5.76676 24.5844 2.88338 24.8133 0 25.4834V24.115C3.67688 23.6005 6.56026 23.8277 8.65014 24.7966ZM7.74577 22.4038C4.84516 22.1158 2.26324 22.2035 0 22.6667V21.4099C3.16981 21.0632 5.75174 21.3945 7.74577 22.4038ZM13.2694 19.7088V20.5434C12.9089 20.7775 12.6246 21.0229 12.4166 21.2794C12.4166 20.8741 12.7906 20.1451 13.2694 19.7088ZM6.75038 20.0032C4.01716 19.7316 1.76703 19.7316 0 20.0032V18.7099C2.91575 18.6642 5.16588 19.0954 6.75038 20.0032ZM13.2694 15.8506V17.1067C12.4122 17.6397 11.6988 18.24 11.1292 18.9075C11.4429 17.7769 12.5328 16.3184 13.2694 15.8506ZM0 16.1362C2.42916 16.2664 4.37542 16.8016 5.83876 17.7419C3.5596 17.2998 1.61334 17.1703 0 17.3532V16.1362ZM13.2694 11.9951V13.5658C12.0059 14.4033 10.8644 15.3723 9.84503 16.4729C10.1715 14.6366 12.4225 12.636 13.2694 11.9951ZM0 13.7086C1.93644 13.9583 3.54769 14.5011 4.83376 15.3372C3.04564 14.928 1.43439 14.7621 0 14.8396V13.7086ZM13.2694 8.42511V9.99589C11.3053 11.3595 9.73582 12.7145 8.56089 14.0609C9.21666 11.1808 12.5804 8.77771 13.2694 8.42511ZM0 11.4239C1.62967 11.683 2.92371 12.2209 3.88212 13.0378C2.47206 12.651 1.17802 12.4457 0 12.4216V11.4239ZM13.2694 4.85515V6.42593C10.9325 7.96164 8.98253 9.69479 7.41944 11.6254C7.73536 8.62564 11.896 5.4772 13.2694 4.85515ZM0 9.1391C1.34663 9.58997 2.31514 10.124 2.90555 10.7413C1.80509 10.3709 0.836571 10.1638 0 10.1198V9.1391ZM13.2694 1.28519V2.85597C10.4187 4.58261 8.03163 6.7355 6.10831 9.31463C6.54712 5.38109 11.8403 1.9846 13.2694 1.28519ZM0 6.99712C0.927604 7.36945 1.58592 7.79752 1.97495 8.28133C1.24017 8.00045 0.58185 7.83825 0 7.79473V6.99712ZM11.9654 0C9.02197 2.00599 6.66025 4.28457 4.88019 6.83574C5.1271 4.55716 6.68029 2.27858 9.53977 0H11.9654ZM0 4.85515C0.505005 5.12247 0.856264 5.40929 1.05377 5.71558C0.725135 5.55435 0.373877 5.44296 0 5.3814V4.85515ZM7.39955 0C5.92469 1.25767 4.64718 2.76451 3.56704 4.52053C3.61086 3.15035 4.22252 1.64351 5.40201 0H7.39955ZM3.70972 0C3.23412 0.603732 2.75851 1.31772 2.28291 2.14198C2.32912 1.2543 2.4718 0.540305 2.71095 0H3.70972Z" fill="#B99855"/>
<path fill-rule="evenodd" clip-rule="evenodd" d="M30.3215 0.843568V8.29508H29.3176V0.843568H26.4492V0H33.3333V0.843568H30.3215Z" fill="white"/>
<path fill-rule="evenodd" clip-rule="evenodd" d="M46.0975 3.65546V0H47.1015V8.29508H46.0975V4.49903H41.2213V8.29508H40.2174V0H41.2213V3.65546H46.0975Z" fill="white"/>
<path fill-rule="evenodd" clip-rule="evenodd" d="M26.8115 18.0329H32.9709V18.8765H27.8142V21.829H32.398V22.6725H27.8142V26.328H26.8115V18.0329Z" fill="white"/>
<path fill-rule="evenodd" clip-rule="evenodd" d="M41.6666 35.7044H47.826V36.548H42.6693V39.5005H47.2531V40.344H42.6693V43.9995H41.6666V35.7044Z" fill="white"/>
<path fill-rule="evenodd" clip-rule="evenodd" d="M55.7972 35.7044H61.9567V36.548H56.7999V39.5005H61.3837V40.344H56.7999V43.9995H55.7972V35.7044Z" fill="white"/>
<path fill-rule="evenodd" clip-rule="evenodd" d="M45.7554 23.2349L43.7774 18.972L41.8727 23.2349H45.7554ZM46.1468 24.0785H41.4958L40.4907 26.328H39.4928L43.1991 18.0329H44.3396L48.1884 26.328H47.1906L46.1468 24.0785Z" fill="white"/>
<path fill-rule="evenodd" clip-rule="evenodd" d="M55.7972 0H61.8167V0.843568H56.7772V3.65546H61.2567V4.49903H56.7772V7.45151H61.9567V8.29508H55.7972V0Z" fill="white"/>
<path fill-rule="evenodd" clip-rule="evenodd" d="M92.7535 35.7044H98.773V36.548H93.7334V39.3599H98.213V40.2034H93.7334V43.1559H98.913V43.9995H92.7535V35.7044Z" fill="white"/>
<path fill-rule="evenodd" clip-rule="evenodd" d="M80.7001 25.4844H85.5074V26.328H79.7103V18.0329H80.7001V25.4844Z" fill="white"/>
<path fill-rule="evenodd" clip-rule="evenodd" d="M29.7101 43.9997C27.3089 43.9997 25.3623 42.062 25.3623 39.6718C25.3623 37.2816 27.3089 35.3439 29.7101 35.3439C32.1114 35.3439 34.058 37.2816 34.058 39.6718C34.058 42.062 32.1114 43.9997 29.7101 43.9997ZM29.7101 43.1483C31.5511 43.1483 33.0435 41.6236 33.0435 39.7428C33.0435 37.8619 31.5511 36.3372 29.7101 36.3372C27.8692 36.3372 26.3768 37.8619 26.3768 39.7428C26.3768 41.6236 27.8692 43.1483 29.7101 43.1483Z" fill="white"/>
<path fill-rule="evenodd" clip-rule="evenodd" d="M86.1778 36.6986L85.4106 37.4557C84.6759 36.7687 83.6588 36.3372 82.6665 36.3372C80.801 36.3372 79.2887 37.8619 79.2887 39.7428C79.2887 41.6236 80.801 43.1483 82.6665 43.1483C83.7091 43.1483 84.779 42.672 85.52 41.9235L86.2318 42.5972C85.2718 43.4593 83.9515 43.9997 82.6665 43.9997C80.2333 43.9997 78.2607 42.062 78.2607 39.6718C78.2607 37.2816 80.2333 35.3439 82.6665 35.3439C83.9276 35.3439 85.2227 35.8644 86.1778 36.6986Z" fill="white"/>
<path fill-rule="evenodd" clip-rule="evenodd" d="M70.2897 18.0329H71.3766V26.328H70.2897V18.0329Z" fill="white"/>
<path fill-rule="evenodd" clip-rule="evenodd" d="M70.2897 35.7044H71.3766V43.9995H70.2897V35.7044Z" fill="white"/>
<path fill-rule="evenodd" clip-rule="evenodd" d="M96.5039 23.0943V26.328H95.525V23.0943L92.0289 18.0329H93.2875L96.0144 22.0891L98.7414 18.0329H99.9999L96.5039 23.0943Z" fill="white"/>
<path fill-rule="evenodd" clip-rule="evenodd" d="M61.7024 18.0517V18.0329H62.6813V26.328H61.7024V19.7277L58.7658 24.0906L55.6892 19.6018V26.328H54.7103V18.0329H55.6892V18.0491L55.8163 18.0329L58.717 22.4576L61.7024 18.0517Z" fill="white"/>
</g>
<defs>
<clipPath id="clip0_4660_186171">
<rect width="100" height="44" fill="white"/>
</clipPath>
</defs>
</svg>
