<svg width="100" height="101" viewBox="0 0 100 101" fill="none" xmlns="http://www.w3.org/2000/svg">
<path d="M9.53467 36.1157L36.2007 13.1533V70.1889L9.53467 93.1513V36.1157Z" fill="url(#paint0_linear_15441_217644)"/>
<path d="M62.8687 36.1157L89.5347 13.1533V70.1889L62.8687 93.1513V36.1157Z" fill="url(#paint1_linear_15441_217644)"/>
<path opacity="0.2" d="M62.8687 36.1157L36.2027 13.1533V70.1889L62.8687 93.1513V36.1157Z" fill="#C0A266"/>
<path fill-rule="evenodd" clip-rule="evenodd" d="M63.6482 13.9717C61.0811 11.4755 57.6234 10.0767 54.0214 10.0771C50.4194 10.0767 46.9616 11.4755 44.3945 13.9717C41.8275 16.4679 40.3569 19.8612 40.3003 23.4191C40.3003 30.3515 51.3948 41.2342 52.6493 42.4542L54.0214 43.9225L55.3935 42.4542C55.3935 42.4542 67.7424 30.3515 67.7424 23.4191C67.6858 19.8612 66.2153 16.4679 63.6482 13.9717ZM50.7234 25.6961C50.2878 25.0442 50.0554 24.2779 50.0554 23.4939C50.0554 22.4426 50.473 21.4344 51.2164 20.691C51.9597 19.9477 52.9679 19.53 54.0192 19.53C54.8032 19.53 55.5696 19.7625 56.2214 20.1981C56.8733 20.6336 57.3813 21.2527 57.6814 21.977C57.9814 22.7013 58.0599 23.4983 57.9069 24.2672C57.754 25.0361 57.3765 25.7424 56.8221 26.2968C56.2677 26.8511 55.5615 27.2287 54.7925 27.3816C54.0236 27.5345 53.2266 27.456 52.5023 27.156C51.778 26.856 51.159 26.348 50.7234 25.6961Z" fill="#B99855"/>
<defs>
<linearGradient id="paint0_linear_15441_217644" x1="44.2706" y1="84.2627" x2="6.61941" y2="21.5706" gradientUnits="userSpaceOnUse">
<stop stop-color="#C0A266" stop-opacity="0.2"/>
<stop offset="1" stop-color="#947A44"/>
</linearGradient>
<linearGradient id="paint1_linear_15441_217644" x1="94.0959" y1="80.1887" x2="60.234" y2="23.2381" gradientUnits="userSpaceOnUse">
<stop stop-color="#C0A266" stop-opacity="0.2"/>
<stop offset="1" stop-color="#947A44"/>
</linearGradient>
</defs>
</svg>
