<svg width="20" height="20" viewBox="9.49268 8 20 22" fill="none" xmlns="http://www.w3.org/2000/svg">
<path d="M10.1818 15.6093L16.4848 10.1816V23.6631L10.1818 29.0907V15.6093Z" fill="url(#paint0_linear_4068_159610)"/>
<path d="M22.7878 15.6093L29.0909 10.1816V23.6631L22.7878 29.0907V15.6093Z" fill="url(#paint1_linear_4068_159610)"/>
<path opacity="0.2" d="M22.7878 15.6093L16.4848 10.1816V23.6631L22.7878 29.0907V15.6093Z" fill="#C0A266"/>
<path fill-rule="evenodd" clip-rule="evenodd" d="M22.9732 10.3737C22.3664 9.78366 21.5491 9.45302 20.6977 9.45313C19.8463 9.45302 19.029 9.78366 18.4222 10.3737C17.8154 10.9637 17.4678 11.7658 17.4544 12.6068C17.4544 14.2454 20.0768 16.8177 20.3734 17.1061L20.6977 17.4531L21.022 17.1061C21.022 17.1061 23.9409 14.2454 23.9409 12.6068C23.9275 11.7658 23.5799 10.9637 22.9732 10.3737ZM19.9184 13.1446C19.8155 12.9905 19.7605 12.8094 19.7605 12.624C19.7605 12.3756 19.8592 12.1372 20.035 11.9615C20.2107 11.7858 20.449 11.6871 20.6975 11.6871C20.8828 11.6871 21.0639 11.7421 21.218 11.845C21.3721 11.948 21.4922 12.0943 21.5631 12.2655C21.634 12.4367 21.6526 12.6251 21.6164 12.8068C21.5802 12.9886 21.491 13.1555 21.36 13.2866C21.2289 13.4176 21.062 13.5068 20.8803 13.543C20.6985 13.5791 20.5101 13.5606 20.3389 13.4897C20.1677 13.4187 20.0214 13.2987 19.9184 13.1446Z" fill="#B99855"/>
<defs>
<linearGradient id="paint0_linear_4068_159610" x1="18.3923" y1="26.9897" x2="9.49268" y2="12.1712" gradientUnits="userSpaceOnUse">
<stop stop-color="#C0A266" stop-opacity="0.2"/>
<stop offset="1" stop-color="#947A44"/>
</linearGradient>
<linearGradient id="paint1_linear_4068_159610" x1="30.169" y1="26.0268" x2="22.1651" y2="12.5654" gradientUnits="userSpaceOnUse">
<stop stop-color="#C0A266" stop-opacity="0.2"/>
<stop offset="1" stop-color="#947A44"/>
</linearGradient>
</defs>
</svg>
