<svg width="40" height="40" viewBox="0 0 40 40" fill="none" xmlns="http://www.w3.org/2000/svg">
<g clip-path="url(#clip0_14722_19514)">
<path d="M22.8125 14.375C22.8125 13.6291 22.5162 12.9137 21.9887 12.3863C21.4613 11.8588 20.7459 11.5625 20 11.5625C19.2541 11.5625 18.5387 11.8588 18.0113 12.3863C17.4838 12.9137 17.1875 13.6291 17.1875 14.375V17.75H22.8125V14.375Z" fill="#B99855"/>
<path d="M33.8713 4.28135L20.3713 2.03135C20.1254 1.99085 19.8746 1.99085 19.6287 2.03135L6.12875 4.28135C5.60378 4.36918 5.12695 4.64026 4.78298 5.04644C4.439 5.45262 4.25016 5.96759 4.25 6.49985V22.2499C4.25 26.427 5.90937 30.4331 8.86307 33.3868C11.8168 36.3405 15.8228 37.9999 20 37.9999C24.1772 37.9999 28.1832 36.3405 31.1369 33.3868C34.0906 30.4331 35.75 26.427 35.75 22.2499V6.49985C35.7498 5.96759 35.561 5.45262 35.217 5.04644C34.873 4.64026 34.3962 4.36918 33.8713 4.28135ZM29 26.7499C29 27.3466 28.7629 27.9189 28.341 28.3408C27.919 28.7628 27.3467 28.9999 26.75 28.9999H13.25C12.6533 28.9999 12.081 28.7628 11.659 28.3408C11.2371 27.9189 11 27.3466 11 26.7499V19.9999C11 19.4031 11.2371 18.8308 11.659 18.4089C12.081 17.9869 12.6533 17.7499 13.25 17.7499H13.8125V14.3749C13.8125 12.7338 14.4644 11.16 15.6248 9.99963C16.7852 8.83925 18.359 8.18735 20 8.18735C21.641 8.18735 23.2148 8.83925 24.3752 9.99963C25.5356 11.16 26.1875 12.7338 26.1875 14.3749V17.7499H26.75C27.3467 17.7499 27.919 17.9869 28.341 18.4089C28.7629 18.8308 29 19.4031 29 19.9999V26.7499Z" fill="#B99855"/>
</g>
<defs>
<clipPath id="clip0_14722_19514">
<rect width="36" height="36" fill="white" transform="translate(2 2)"/>
</clipPath>
</defs>
</svg>
