<svg width="20" height="21" viewBox="0 0 20 21" fill="none" xmlns="http://www.w3.org/2000/svg">
<g id="trash-can 1" clip-path="url(#clip0_17213_2776)">
<g id="Group">
<path id="Vector" d="M18.75 4.25H15V1.75C15 1.41848 14.8683 1.10054 14.6339 0.866117C14.3995 0.631696 14.0815 0.5 13.75 0.5H6.25C5.91848 0.5 5.60054 0.631696 5.36612 0.866117C5.1317 1.10054 5 1.41848 5 1.75V4.25H1.25C0.918479 4.25 0.600537 4.3817 0.366117 4.61612C0.131696 4.85054 0 5.16848 0 5.5C0 5.83152 0.131696 6.14946 0.366117 6.38388C0.600537 6.6183 0.918479 6.75 1.25 6.75H18.75C19.0815 6.75 19.3995 6.6183 19.6339 6.38388C19.8683 6.14946 20 5.83152 20 5.5C20 5.16848 19.8683 4.85054 19.6339 4.61612C19.3995 4.3817 19.0815 4.25 18.75 4.25ZM7.5 4.25V3H12.5V4.25H7.5Z" fill="#B99855"/>
<path id="Vector_2" d="M2.56836 9.25L3.13086 19.375C3.16195 19.6844 3.30725 19.9711 3.53839 20.1791C3.76953 20.3872 4.0699 20.5016 4.38086 20.5H15.6309C15.9407 20.5 16.2396 20.3849 16.4694 20.177C16.6992 19.9692 16.8436 19.6833 16.8746 19.375L17.4371 9.25H2.56836Z" fill="#B99855"/>
</g>
</g>
<defs>
<clipPath id="clip0_17213_2776">
<rect width="20" height="20" fill="white" transform="translate(0 0.5)"/>
</clipPath>
</defs>
</svg>
