<svg width="24" height="24" viewBox="0 0 24 24" fill="none" xmlns="http://www.w3.org/2000/svg">
<path d="M21.7083 6.48015C21.0307 6.78095 20.3025 6.98354 19.5382 7.07485C20.3186 6.60753 20.9179 5.86703 21.1995 4.98456C20.4698 5.41735 19.661 5.73197 18.8 5.90156C18.1117 5.16719 17.1287 4.70831 16.0421 4.70831C13.6027 4.70831 11.8101 6.9843 12.3611 9.34701C9.22179 9.1897 6.4378 7.68567 4.57389 5.3997C3.58399 7.09787 4.06052 9.31938 5.74258 10.4443C5.12408 10.4244 4.54089 10.2548 4.03213 9.97164C3.99069 11.722 5.24533 13.3595 7.06244 13.724C6.53066 13.8683 5.94823 13.9021 5.35583 13.7885C5.83619 15.2894 7.23126 16.3814 8.88568 16.4121C7.29725 17.6575 5.29597 18.2139 3.29163 17.9775C4.9637 19.0495 6.9504 19.6749 9.08366 19.6749C16.0989 19.6749 20.0623 13.7501 19.8229 8.43615C20.5611 7.90283 21.2018 7.23753 21.7083 6.48015V6.48015Z" fill="#55B4E5"/>
</svg>
