<svg width="24" height="25" viewBox="0 0 24 25" fill="none" xmlns="http://www.w3.org/2000/svg">
<g id="Icons">
<g id="Eye">
<path id="Fill 6" fill-rule="evenodd" clip-rule="evenodd" d="M11.9991 13.0576C11.0575 13.0576 10.2974 13.8685 10.2974 14.8737C10.2974 15.878 11.0575 16.6889 11.9991 16.6889C12.9407 16.6889 13.7017 15.878 13.7017 14.8737C13.7017 13.8685 12.9407 13.0576 11.9991 13.0576ZM11.9989 17.8993C10.4328 17.8993 9.16211 16.5431 9.16211 14.8734C9.16211 13.2029 10.4328 11.8467 11.9989 11.8467C13.565 11.8467 14.8357 13.2029 14.8357 14.8734C14.8357 16.5431 13.565 17.8993 11.9989 17.8993ZM11.9989 10.334C9.16211 10.334 6.73953 12.2168 5.75781 14.8737C6.73953 17.5305 9.16211 19.4117 11.9989 19.4117C14.8357 19.4117 17.2582 17.5305 18.24 14.8737C17.2582 12.2168 14.8357 10.334 11.9989 10.334Z" fill="#B99855"/>
<path id="Fill 1" fill-rule="evenodd" clip-rule="evenodd" d="M4.48198 15.4029H2.49607C2.22235 15.4029 2 15.1657 2 14.8729C2 14.5809 2.22235 14.3438 2.49607 14.3438H4.48198C4.75651 14.3438 4.97886 14.5809 4.97886 14.8729C4.97886 15.1657 4.75651 15.4029 4.48198 15.4029Z" fill="#B99855"/>
<path id="Fill 3" fill-rule="evenodd" clip-rule="evenodd" d="M21.5035 15.4029H19.5176C19.2438 15.4029 19.0215 15.1657 19.0215 14.8729C19.0215 14.5809 19.2438 14.3438 19.5176 14.3438H21.5035C21.778 14.3438 22.0003 14.5809 22.0003 14.8729C22.0003 15.1657 21.778 15.4029 21.5035 15.4029Z" fill="#B99855"/>
<path id="Fill 8" fill-rule="evenodd" clip-rule="evenodd" d="M6.77806 9.83265C6.65124 9.83265 6.52441 9.78042 6.42728 9.67767L5.22321 8.39334C5.02976 8.18699 5.02976 7.8522 5.22321 7.645C5.41747 7.43865 5.73133 7.43865 5.92559 7.645L7.12885 8.92848C7.32311 9.13568 7.32311 9.47047 7.12885 9.67767C7.03252 9.78042 6.9057 9.83265 6.77806 9.83265Z" fill="#B99855"/>
<path id="Fill 10" fill-rule="evenodd" clip-rule="evenodd" d="M17.2215 9.83265C17.0946 9.83265 16.967 9.78042 16.8707 9.67767C16.6772 9.47047 16.6772 9.13568 16.8707 8.92848L18.0739 7.645C18.2674 7.43865 18.5821 7.43865 18.7763 7.645C18.9698 7.8522 18.9698 8.18699 18.7763 8.39334L17.573 9.67767C17.4759 9.78042 17.3483 9.83265 17.2215 9.83265Z" fill="#B99855"/>
<path id="Fill 12" fill-rule="evenodd" clip-rule="evenodd" d="M11.9998 7.67745C11.7253 7.67745 11.5029 7.44027 11.5029 7.14745V5.03C11.5029 4.73717 11.7253 4.5 11.9998 4.5C12.2735 4.5 12.4959 4.73717 12.4959 5.03V7.14745C12.4959 7.44027 12.2735 7.67745 11.9998 7.67745Z" fill="#B99855"/>
</g>
</g>
</svg>
