<svg viewBox="0 0 26 27" width="27" height="27"><path d="M0 8.463 8.667 1v18.537L0 27V8.463Zm17.334 0L26.001 1v18.537L17.334 27V8.463Z" fill="#B99855"/><path opacity=".2" d="M17.334 8.463 8.667 1v18.537L17.334 27V8.463Z" fill="#C0A266"/><path fill-rule="evenodd" clip-rule="evenodd" d="M17.587 1.266A4.488 4.488 0 0 0 14.46 0a4.489 4.489 0 0 0-3.13 1.266A4.38 4.38 0 0 0 10 4.336c0 2.253 3.606 5.79 4.014 6.187l.446.477.446-.477s4.013-3.934 4.013-6.187a4.38 4.38 0 0 0-1.33-3.07Zm-4.2 3.81a1.289 1.289 0 1 1 2.143-1.431 1.289 1.289 0 0 1-2.143 1.431Z" fill="#B99855"/></svg>