<svg width="70" height="70" viewBox="0 0 70 70" fill="none" xmlns="http://www.w3.org/2000/svg">
<circle cx="35" cy="35" r="35" fill="#222222"/>
<path d="M46.2919 21.6316C42.5888 20.8755 38.8247 20.4687 35.0477 20.4164C31.2706 20.4687 27.5065 20.8755 23.8034 21.6316C23.2521 21.7428 22.7568 22.0471 22.4044 22.4915C22.0519 22.9358 21.8647 23.4918 21.8754 24.0622V31.3537C21.8754 43.9924 33.8502 49.2666 33.8502 49.2666C34.1989 49.4738 34.5957 49.583 34.9998 49.583C35.4038 49.583 35.8006 49.4738 36.1493 49.2666C36.1493 49.2666 48.1241 43.9924 48.1241 31.3537V24.0622C48.1394 23.5053 47.9658 22.96 47.6322 22.5175C47.2987 22.0751 46.8255 21.7623 46.2919 21.6316ZM43.0827 29.786L34.0298 38.9734C33.9179 39.086 33.7852 39.1751 33.6393 39.2356C33.4934 39.2961 33.3372 39.3267 33.1796 39.3258C32.8625 39.3213 32.5589 39.1955 32.3294 38.9734L28.234 34.7686C28.011 34.5409 27.8858 34.2329 27.8858 33.9118C27.8858 33.5908 28.011 33.2828 28.234 33.0551C28.3453 32.9412 28.4778 32.8508 28.6237 32.7891C28.7696 32.7274 28.9262 32.6956 29.0842 32.6956C29.2423 32.6956 29.3988 32.7274 29.5448 32.7891C29.6907 32.8508 29.8231 32.9412 29.9344 33.0551L33.2155 36.3849L41.4062 28.0604C41.5176 27.9465 41.65 27.856 41.7959 27.7944C41.9418 27.7327 42.0984 27.7009 42.2564 27.7009C42.4145 27.7009 42.571 27.7327 42.717 27.7944C42.8629 27.856 42.9953 27.9465 43.1066 28.0604C43.2173 28.1749 43.3046 28.3106 43.3633 28.4596C43.4221 28.6085 43.4512 28.7678 43.4489 28.9283C43.4467 29.0887 43.4132 29.2471 43.3503 29.3943C43.2875 29.5415 43.1965 29.6747 43.0827 29.786Z" fill="#B99855"/>
</svg>
