<svg width="70" height="70" viewBox="0 0 70 70" fill="none" xmlns="http://www.w3.org/2000/svg">
<circle cx="35" cy="35" r="35" fill="#222222"/>
<path d="M41.7134 26.2704H46.213L41.2238 21.1461V25.7646C41.2234 25.8308 41.2358 25.8965 41.2602 25.9578C41.2847 26.0191 41.3207 26.0749 41.3662 26.1219C41.4117 26.1689 41.4658 26.2062 41.5253 26.2317C41.5849 26.2572 41.6488 26.2703 41.7134 26.2704Z" fill="#B99855"/>
<path d="M46.2185 31.0868V27.7659H40.7761C40.6354 27.7659 40.4961 27.7375 40.3661 27.6822C40.2362 27.627 40.1181 27.546 40.0186 27.4438C39.9191 27.3417 39.8402 27.2205 39.7863 27.0871C39.7325 26.9537 39.7048 26.8107 39.7048 26.6663V21.1461H26.9345C26.3663 21.1461 25.8213 21.3778 25.4194 21.7903C25.0176 22.2027 24.7919 22.7621 24.7919 23.3454V45.3381C24.7919 45.9214 25.0176 46.4808 25.4194 46.8932C25.8213 47.3057 26.3663 47.5374 26.9345 47.5374H44.0758C44.6436 47.5356 45.1876 47.3034 45.589 46.8913C45.9905 46.4792 46.2168 45.9208 46.2185 45.3381V39.7959C47.0098 39.3946 47.6759 38.7742 48.1417 38.0047C48.6075 37.2352 48.8544 36.3473 48.8544 35.4414C48.8544 34.5354 48.6075 33.6476 48.1417 32.8781C47.6759 32.1086 47.0098 31.4881 46.2185 31.0868ZM32.7947 38.7513C31.9395 38.7513 31.1192 38.4026 30.5145 37.7818C29.9097 37.1611 29.57 36.3192 29.57 35.4414C29.57 34.5635 29.9097 33.7217 30.5145 33.1009C31.1192 32.4802 31.9395 32.1315 32.7947 32.1315H44.1401C44.9953 32.1315 45.8156 32.4802 46.4203 33.1009C47.0251 33.7217 47.3648 34.5635 47.3648 35.4414C47.3648 36.3192 47.0251 37.1611 46.4203 37.7818C45.8156 38.4026 44.9953 38.7513 44.1401 38.7513H32.7947Z" fill="#B99855"/>
<path d="M33.8971 33.9464L33.1043 34.7601L32.3115 33.9464L31.5509 34.7162L32.3437 35.5299L31.5509 36.3546L32.3115 37.1244L33.1043 36.3106L33.8971 37.1244L34.6578 36.3546L33.865 35.5299L34.6578 34.7162L33.8971 33.9464Z" fill="#B99855"/>
<path d="M39.2548 33.9464L38.462 34.7601L37.6692 33.9464L36.9086 34.7162L37.7014 35.5299L36.9086 36.3546L37.6692 37.1244L38.462 36.3106L39.2548 37.1244L40.0154 36.3546L39.2226 35.5299L40.0154 34.7162L39.2548 33.9464Z" fill="#B99855"/>
<path d="M44.6124 33.9464L43.8197 34.7601L43.0269 33.9464L42.2662 34.7162L43.059 35.5299L42.2662 36.3546L43.0269 37.1244L43.8197 36.3106L44.6124 37.1244L45.3731 36.3546L44.5803 35.5299L45.3731 34.7162L44.6124 33.9464Z" fill="#B99855"/>
</svg>
