<svg width="70" height="70" viewBox="0 0 70 70" fill="none" xmlns="http://www.w3.org/2000/svg">
<circle cx="35" cy="35" r="35" fill="#222222"/>
<path fill-rule="evenodd" clip-rule="evenodd" d="M43.7667 49.3322H26.9639C25.1893 49.3322 23.7509 47.8938 23.7509 46.1188V35.7428C23.7509 34.1947 24.8461 32.9024 26.3037 32.5984V27.9139C26.3037 22.9174 30.369 18.8517 35.3659 18.8517C40.3624 18.8517 44.4277 22.917 44.4277 27.9139V32.5984C45.8849 32.9032 46.9798 34.1952 46.9798 35.7428V46.1188C46.9794 47.8934 45.5413 49.3322 43.7667 49.3322ZM35.3639 23.5781C32.974 23.5781 31.0301 25.5224 31.0301 27.912V32.5274H39.6978V27.912C39.6975 25.5228 37.7535 23.5781 35.3639 23.5781ZM32.5207 40.2176C32.5207 38.6471 33.7941 37.3741 35.3642 37.3741H35.3643C36.9344 37.3741 38.2078 38.6467 38.2082 40.2176C38.2082 41.2708 37.634 42.1879 36.783 42.6796V45.8408H33.9459V42.6796C33.0949 42.1875 32.5207 41.2704 32.5207 40.2176Z" fill="#B99855"/>
</svg>
