<svg width="10" height="10" viewBox="0 0 10 10" fill="none" xmlns="http://www.w3.org/2000/svg">
<path d="M6.94524 9.26465H5.81597H3.86145H2.73218H0.777581H0V10.0006H9.67742V9.26465H8.89984H6.94524Z" fill="#A5BFC5"/>
<path d="M3.99401 3.71294C4.01708 3.92302 4.12619 4.11294 4.30111 4.2477C4.3328 4.27206 4.35175 4.3106 4.35175 4.35068V8.34197C4.35175 8.38205 4.3328 8.4206 4.30111 8.44504C4.14764 8.56318 4.04256 8.72826 4.00514 8.9098L3.99433 8.96181H5.68321L5.6724 8.9098C5.63498 8.72794 5.53006 8.56286 5.37708 8.44504C5.34538 8.4206 5.32643 8.38205 5.32643 8.34197V4.35076C5.32643 4.31068 5.34538 4.27214 5.37708 4.24778C5.552 4.11302 5.66103 3.9231 5.68417 3.71302L5.68941 3.66504H3.98877L3.99401 3.71294Z" fill="#A5BFC5"/>
<path d="M0.910027 3.71392C0.933092 3.924 1.0422 4.11392 1.21712 4.24868C1.24882 4.27311 1.26777 4.31158 1.26777 4.35174V8.34303C1.26777 8.38311 1.24882 8.42166 1.21712 8.4461C1.06366 8.56424 0.958575 8.72932 0.921156 8.91085L0.91035 8.96287H2.59922L2.58841 8.91085C2.55099 8.729 2.44608 8.56392 2.29309 8.4461C2.2614 8.42166 2.24245 8.38311 2.24245 8.34303V4.35174C2.24245 4.31166 2.2614 4.27311 2.29309 4.24876C2.46801 4.114 2.57704 3.92408 2.60019 3.714L2.60543 3.66602H0.904785L0.910027 3.71392Z" fill="#A5BFC5"/>
<path d="M8.46049 4.24778C8.63541 4.11302 8.74444 3.9231 8.76759 3.71302L8.77283 3.66504H7.07227L7.07751 3.71302C7.10057 3.9231 7.20969 4.11302 7.3846 4.24778C7.4163 4.27214 7.43525 4.31068 7.43525 4.35076V8.34206C7.43525 8.38214 7.4163 8.42068 7.3846 8.44512C7.23114 8.56326 7.12606 8.72835 7.08864 8.90988L7.07783 8.96189H8.7667L8.75589 8.90988C8.71848 8.72802 8.61356 8.56294 8.46057 8.44512C8.42888 8.42068 8.40993 8.38214 8.40993 8.34206V4.35085C8.40993 4.31068 8.42888 4.27222 8.46049 4.24778Z" fill="#A5BFC5"/>
<path d="M0.276855 3.36121H0.78113H2.72847H3.86492H5.81226H6.94871H8.89605H9.40032L4.83863 0L0.276855 3.36121ZM5.62782 2.04629C5.62782 2.48274 5.27379 2.83782 4.83863 2.83782C4.40347 2.83782 4.04944 2.48274 4.04944 2.04629C4.04944 1.60984 4.40347 1.25476 4.83863 1.25476C5.27379 1.25476 5.62782 1.60984 5.62782 2.04629Z" fill="#A5BFC5"/>
<path d="M4.83881 2.49156C5.08417 2.49156 5.28308 2.29222 5.28308 2.04632C5.28308 1.80042 5.08417 1.60107 4.83881 1.60107C4.59344 1.60107 4.39453 1.80042 4.39453 2.04632C4.39453 2.29222 4.59344 2.49156 4.83881 2.49156Z" fill="#A5BFC5"/>
</svg>
