<svg width="15" height="13" viewBox="0 0 15 13" fill="none" xmlns="http://www.w3.org/2000/svg">
<g clip-path="url(#clip0_3919_123992)">
<path fill-rule="evenodd" clip-rule="evenodd" d="M10.9917 3.18627L8.01245 5.75273C7.82735 5.9122 7.52814 5.9122 7.34304 5.75273L5.78406 4.40976L3.75166 6.16056L3.08224 5.58389L5.44935 3.54475C5.63446 3.38529 5.93366 3.38529 6.11877 3.54475L7.67775 4.88773L10.3223 2.6096H8.62459V1.79395H11.4651C11.7265 1.79395 11.9385 1.97665 11.9385 2.20177V4.64874H10.9917V3.18627ZM12.8853 5.4644H10.9916C10.7303 5.4644 10.5182 5.64711 10.5182 5.87223V11.174C10.5182 11.3991 10.7303 11.5818 10.9916 11.5818H12.8853C13.1466 11.5818 13.3587 11.3991 13.3587 11.174V5.87223C13.3587 5.64711 13.1466 5.4644 12.8853 5.4644ZM6.7308 7.09576H8.62449C8.88582 7.09576 9.09791 7.27847 9.09791 7.50359V11.174C9.09791 11.3992 8.88582 11.5819 8.62449 11.5819H6.7308C6.46947 11.5819 6.25738 11.3992 6.25738 11.174V7.50359C6.25738 7.27847 6.46947 7.09576 6.7308 7.09576ZM2.47 8.72698H4.36369C4.62502 8.72698 4.83711 8.90968 4.83711 9.1348V11.1739C4.83711 11.3991 4.62502 11.5818 4.36369 11.5818H2.47C2.20868 11.5818 1.99658 11.3991 1.99658 11.1739V9.1348C1.99658 8.90968 2.20868 8.72698 2.47 8.72698Z" fill="#A5BFC5"/>
</g>
<defs>
<clipPath id="clip0_3919_123992">
<rect width="11.3621" height="9.78788" fill="white" transform="translate(1.99658 1.79395)"/>
</clipPath>
</defs>
</svg>
