<svg width="10" height="11" viewBox="0 0 10 11" fill="none" xmlns="http://www.w3.org/2000/svg">
<path d="M6.75533 2.95149H6.86267C7.09964 2.95149 7.29165 2.78608 7.29165 2.58194C7.29165 2.37781 7.09964 2.2124 6.86267 2.2124H2.95182C2.71485 2.2124 2.52285 2.37781 2.52285 2.58194C2.52285 2.78608 2.71485 2.95149 2.95182 2.95149H3.06115C1.98254 3.79647 -0.090366 5.69072 0.152407 7.57748C0.486923 10.1091 4.90833 10.0131 4.90833 10.0131C4.90833 10.0131 9.32974 10.1091 9.65773 7.57748C9.90032 5.69072 7.83376 3.79647 6.75533 2.95149ZM4.90725 8.55303C3.51715 8.55303 2.39049 7.58232 2.39049 6.38498C2.39049 5.18748 3.51715 4.21693 4.90725 4.21693C6.29716 4.21693 7.424 5.18764 7.424 6.38498C7.42418 7.58232 6.29734 8.55303 4.90725 8.55303Z" fill="#A5BFC5"/>
<path d="M6.94377 0.3725C6.75267 0.478708 6.59294 0.603035 6.2189 0.603035C5.566 0.603035 5.566 0.224121 4.91311 0.224121C4.26021 0.224121 4.26021 0.603035 3.60732 0.603035C3.23328 0.603035 3.07354 0.478708 2.88244 0.3725C2.65744 0.247393 2.37296 0.429509 2.44984 0.650516L2.86304 1.83802C2.89477 1.83567 2.92523 1.82974 2.95769 1.82974H6.86871C6.90117 1.82974 6.93181 1.83567 6.96354 1.83802L7.37674 0.650516C7.45325 0.429509 7.1686 0.247393 6.94377 0.3725Z" fill="#A5BFC5"/>
<ellipse cx="4.99612" cy="6.44522" rx="1.72244" ry="1.48379" fill="#A5BFC5"/>
</svg>
