<svg width="14" height="12" viewBox="0 0 14 12" fill="none" xmlns="http://www.w3.org/2000/svg">
<path d="M11.3964 8.1714H9.65793C9.74522 8.46995 9.79224 8.77618 9.79806 9.08402C9.79654 9.20351 9.74036 9.31766 9.64173 9.40169C9.5431 9.48572 9.40998 9.53285 9.27126 9.53284H4.54796V8.62522H8.76237C8.76237 8.14378 8.54036 7.68207 8.14518 7.34164C7.75001 7.00122 7.21403 6.80997 6.65517 6.80997H4.54796C3.9158 6.0335 2.60143 5.90234 1.96663 5.90234H0.860352V9.75974L5.17591 11.4674C5.70691 11.6959 6.31966 11.7395 6.88696 11.5891L13.5036 9.83553C13.5036 9.83553 13.0864 8.1714 11.3964 8.1714Z" fill="#A5BFC5"/>
<path d="M8.76262 0.90918C8.13747 0.90918 7.52636 1.06887 7.00656 1.36807C6.48677 1.66726 6.08164 2.09251 5.84241 2.59005C5.60318 3.08759 5.54058 3.63507 5.66254 4.16326C5.7845 4.69144 6.08554 5.17661 6.52759 5.55741C6.96963 5.93821 7.53284 6.19754 8.14597 6.3026C8.75911 6.40766 9.39464 6.35374 9.9722 6.14766C10.5498 5.94157 11.0434 5.59257 11.3907 5.1448C11.738 4.69702 11.9234 4.17058 11.9234 3.63205C11.9226 2.91012 11.5893 2.21797 10.9967 1.70749C10.4041 1.19701 9.60066 0.909901 8.76262 0.90918V0.90918ZM9.28942 4.99349H8.23581V2.27062H9.28942V4.99349Z" fill="#A5BFC5"/>
</svg>
