<svg width="16" height="16" viewBox="0 0 16 16" fill="none" xmlns="http://www.w3.org/2000/svg">
<path d="M8 0.5C3.875 0.5 0.5 3.875 0.5 8C0.5 12.125 3.875 15.5 8 15.5C12.125 15.5 15.5 12.125 15.5 8C15.5 3.875 12.125 0.5 8 0.5ZM8 12.6875C7.4375 12.6875 7.0625 12.3125 7.0625 11.75C7.0625 11.1875 7.4375 10.8125 8 10.8125C8.5625 10.8125 8.9375 11.1875 8.9375 11.75C8.9375 12.3125 8.5625 12.6875 8 12.6875ZM9.40625 8.375C8.9375 8.65625 8.9375 8.75 8.9375 8.9375V9.875H7.0625V8.9375C7.0625 7.71875 7.8125 7.15625 8.375 6.78125C8.84375 6.5 8.9375 6.40625 8.9375 6.125C8.9375 5.5625 8.5625 5.1875 8 5.1875C7.625 5.1875 7.34375 5.375 7.15625 5.65625L6.6875 6.5L5.09375 5.5625L5.5625 4.71875C6.03125 3.875 6.96875 3.3125 8 3.3125C9.59375 3.3125 10.8125 4.53125 10.8125 6.125C10.8125 7.4375 9.96875 8 9.40625 8.375Z" fill="#B99855"/>
</svg>
