<svg width="12" height="10" viewBox="0 0 12 10" fill="none" xmlns="http://www.w3.org/2000/svg">
<path d="M0.996582 9.60736C0.996582 9.43777 1.15617 9.30029 1.35304 9.30029H11.2002C11.3971 9.30029 11.5567 9.43777 11.5567 9.60736C11.5567 9.77695 11.3971 9.91443 11.2002 9.91443H1.35304C1.15617 9.91443 0.996582 9.77695 0.996582 9.60736Z" fill="#A5BFC5"/>
<path fill-rule="evenodd" clip-rule="evenodd" d="M2.4668 0.45325C2.4668 0.239872 2.66629 0.0668945 2.91237 0.0668945H9.59596C9.84205 0.0668945 10.0415 0.239872 10.0415 0.45325V9.53261C10.0415 9.74599 9.84205 9.91896 9.59596 9.91896H2.91237C2.66629 9.91896 2.4668 9.74599 2.4668 9.53261V0.45325ZM5.40771 7.48404H6.83355V9.29992H5.40771V7.48404ZM4.87287 1.07222H3.44702V2.30852H4.87287V1.07222ZM5.54196 1.07222H6.96779V2.30858H5.54196V1.07222ZM9.06157 1.07222H7.63574V2.30858H9.06157V1.07222ZM3.44702 3.07945H4.87285V4.31581H3.44702V3.07945ZM6.96782 3.07945H5.54199V4.31581H6.96782V3.07945ZM7.63574 3.07945H9.06157V4.31581H7.63574V3.07945ZM4.87285 5.09055H3.44702V6.32691H4.87285V5.09055ZM5.54199 5.09055H6.96782V6.32691H5.54199V5.09055ZM9.06157 5.09055H7.63574V6.32691H9.06157V5.09055Z" fill="#A5BFC5"/>
</svg>
